<svg xmlns="http://www.w3.org/2000/svg" viewBox="0 0 4.19 4.92"><defs><style>.cls-1{fill:#1c1c1c;}</style></defs><title>Programa_Kin Simodany Orozco Takamura</title><g id="Cursos"><path id="Trazado_2606" data-name="Trazado 2606" class="cls-1" d="M2.09,4.92a.16.16,0,0,1-.11,0L.05,2.93a.14.14,0,0,1,0-.22.15.15,0,0,1,.11,0H1V1.43a.16.16,0,0,1,.15-.16.16.16,0,0,1,.17.15h0V2.82A.16.16,0,0,1,1.14,3H.54L2.09,4.54,3.65,3h-.6a.16.16,0,0,1-.16-.15h0V.31H2.13V1A.16.16,0,0,1,2,1.16H1.14A.16.16,0,0,1,1,1,.16.16,0,0,1,1,.89L1.86.05A.16.16,0,0,1,2,0H3.05a.16.16,0,0,1,.16.16h0V2.67H4a.16.16,0,0,1,.16.16.16.16,0,0,1-.05.11L2.21,4.87A.17.17,0,0,1,2.09,4.92ZM1.52.84h.3V.54Z"/><rect class="cls-1" x="1.48" y="1.72" width="1.23" height="0.31"/><rect class="cls-1" x="1.48" y="2.3" width="1.23" height="0.31"/><rect class="cls-1" x="1.48" y="2.88" width="0.77" height="0.31"/></g></svg>