<svg xmlns="http://www.w3.org/2000/svg" viewBox="0 0 29.62 23.95"><defs><style>.cls-1{fill:#fe0022;}</style></defs><title>Programa_Kin Simodany Orozco Takamura</title><g id="Cursos"><g id="Grupo_3070" data-name="Grupo 3070"><g id="Grupo_2700" data-name="Grupo 2700"><g id="Grupo_2699" data-name="Grupo 2699"><path id="Trazado_1798" data-name="Trazado 1798" class="cls-1" d="M3.39,3.83H.26V2.49H5.74V3.83L2.35,7.65H6V9H0V7.65Z"/><path id="Trazado_1799" data-name="Trazado 1799" class="cls-1" d="M8.35,7.44a1.59,1.59,0,0,0,1.16.39,1.54,1.54,0,0,0,.93-.27A1.12,1.12,0,0,0,10.92,7h1.57a3,3,0,0,1-1.16,1.68,3.44,3.44,0,0,1-1.9.51A3.71,3.71,0,0,1,8,8.93a2.7,2.7,0,0,1-1-.7,3,3,0,0,1-.66-1.08,3.9,3.9,0,0,1-.23-1.39A3.68,3.68,0,0,1,6.36,4.4,3.28,3.28,0,0,1,7,3.31a2.92,2.92,0,0,1,1-.71,3.17,3.17,0,0,1,1.36-.26,3.17,3.17,0,0,1,1.45.32,2.86,2.86,0,0,1,1,.85,3.49,3.49,0,0,1,.56,1.24,4.41,4.41,0,0,1,.12,1.45H7.91A1.88,1.88,0,0,0,8.35,7.44Zm2-3.44a1.26,1.26,0,0,0-1-.35,1.58,1.58,0,0,0-.71.14,1.31,1.31,0,0,0-.46.35A1.53,1.53,0,0,0,8,4.59,1.61,1.61,0,0,0,7.91,5h2.9A2,2,0,0,0,10.38,4Z"/><path id="Trazado_1800" data-name="Trazado 1800" class="cls-1" d="M19.55,9.47a2.2,2.2,0,0,1-.46.93,2.59,2.59,0,0,1-1,.73,4.73,4.73,0,0,1-2.76.19,3.11,3.11,0,0,1-.9-.37,2.19,2.19,0,0,1-.68-.64,1.78,1.78,0,0,1-.3-1H15.2a1,1,0,0,0,.49.7,1.65,1.65,0,0,0,.84.2,1.26,1.26,0,0,0,1.1-.46A1.84,1.84,0,0,0,18,8.66V7.8h0a1.75,1.75,0,0,1-.82.77A2.61,2.61,0,0,1,16,8.81a2.83,2.83,0,0,1-1.25-.26,2.4,2.4,0,0,1-.88-.7,3,3,0,0,1-.5-1,4.51,4.51,0,0,1-.15-1.27,4.24,4.24,0,0,1,.18-1.22,3.32,3.32,0,0,1,.54-1,2.5,2.5,0,0,1,.87-.71A2.39,2.39,0,0,1,16,2.31a2.33,2.33,0,0,1,1.13.24,1.86,1.86,0,0,1,.81.81h0V2.49h1.7V8.58A5.28,5.28,0,0,1,19.55,9.47ZM17.09,7.3a1.32,1.32,0,0,0,.48-.4,2.29,2.29,0,0,0,.29-.56A2.57,2.57,0,0,0,18,5.67a3.94,3.94,0,0,0-.08-.77,1.92,1.92,0,0,0-.24-.64,1.48,1.48,0,0,0-.46-.44,1.45,1.45,0,0,0-.73-.17,1.17,1.17,0,0,0-.64.15,1.65,1.65,0,0,0-.46.41,1.53,1.53,0,0,0-.26.6,2.79,2.79,0,0,0-.08.7,3.43,3.43,0,0,0,.08.71,1.74,1.74,0,0,0,.24.62,1.48,1.48,0,0,0,.44.46,1.21,1.21,0,0,0,.69.18,1.75,1.75,0,0,0,.64-.18Z"/><path id="Trazado_1801" data-name="Trazado 1801" class="cls-1" d="M22.47,7.44a1.59,1.59,0,0,0,1.16.39,1.57,1.57,0,0,0,.94-.27A1.15,1.15,0,0,0,25,7h1.57a2.94,2.94,0,0,1-1.16,1.68,3.4,3.4,0,0,1-1.89.51,3.64,3.64,0,0,1-1.39-.25,2.73,2.73,0,0,1-1-.7,3.09,3.09,0,0,1-.66-1.08,4.4,4.4,0,0,1-.23-1.39,3.69,3.69,0,0,1,.25-1.36,3.25,3.25,0,0,1,.67-1.09,3,3,0,0,1,1.05-.71,3.2,3.2,0,0,1,1.36-.26A3.17,3.17,0,0,1,25,2.66a2.77,2.77,0,0,1,1,.85,3.51,3.51,0,0,1,.57,1.24,4.7,4.7,0,0,1,.12,1.45H22A1.87,1.87,0,0,0,22.47,7.44Zm2-3.44a1.27,1.27,0,0,0-1-.35,1.65,1.65,0,0,0-.72.14,1.37,1.37,0,0,0-.45.35,1.29,1.29,0,0,0-.25.46A1.48,1.48,0,0,0,22,5h2.9a1.94,1.94,0,0,0-.43-1Z"/><path id="Trazado_1802" data-name="Trazado 1802" class="cls-1" d="M29.62,0V9H27.83V0Z"/></g></g><g id="Grupo_2701" data-name="Grupo 2701"><path id="Trazado_1803" data-name="Trazado 1803" class="cls-1" d="M16.3,16.76l-1,2.89h2l-1-2.89Z"/><path id="Trazado_1804" data-name="Trazado 1804" class="cls-1" d="M10.31,16.38a1.25,1.25,0,0,0-.49-.17,3.6,3.6,0,0,0-.56,0H7.91v2.35H9.26a3.64,3.64,0,0,0,.56-.05,1.43,1.43,0,0,0,.49-.17,1,1,0,0,0,.33-.35,1.18,1.18,0,0,0,.13-.61,1.42,1.42,0,0,0-.13-.61A1.1,1.1,0,0,0,10.31,16.38Z"/><path id="Trazado_1805" data-name="Trazado 1805" class="cls-1" d="M0,13.54V24H29.62V13.54Zm4.78,9.15H3.1V14.84H4.78Zm7.41-4.42a2.11,2.11,0,0,1-.46.81,2.3,2.3,0,0,1-.81.57,3.17,3.17,0,0,1-1.22.21H7.93v2.81H6.26V14.82H9.7a3.13,3.13,0,0,1,1.21.22,2,2,0,0,1,.82.56,2.33,2.33,0,0,1,.46.81,3,3,0,0,1,0,1.86Zm6.1,4.42-.58-1.76H14.86l-.59,1.76H12.58l2.87-7.85h1.72L20,22.69Zm8.2,0H20.71V14.84h5.71v1.45h-4V18h3.7v1.34h-3.7v1.93h4.11Z"/></g></g></g></svg>