<svg xmlns="http://www.w3.org/2000/svg" viewBox="0 0 5.12 5.13"><defs><style>.cls-1{fill:#1c1c1c;}</style></defs><title>Programa_Kin Simodany Orozco Takamura</title><g id="Cursos"><path class="cls-1" d="M4.92,1.55l-.08-.17v0A2.57,2.57,0,1,0,3.57,4.92,2.54,2.54,0,0,0,5.12,2.56,2.34,2.34,0,0,0,4.92,1.55ZM4.44,3.67v0a2.3,2.3,0,0,1-.8.78,2.21,2.21,0,0,1-1.09.3h0a2.09,2.09,0,0,1-.85-.18,2.22,2.22,0,0,1-1-3.14A2.1,2.1,0,0,1,1.42.65a2.23,2.23,0,0,1,2.21,0,2.1,2.1,0,0,1,.81.81A2.23,2.23,0,0,1,4.44,3.67Z"/><polygon class="cls-1" points="3.26 3.66 2.28 2.73 2.28 1.01 2.78 1.01 2.78 2.52 3.6 3.3 3.26 3.66"/></g></svg>